<svg width="2042" height="2455" viewBox="0 0 2042 2455" fill="none" xmlns="http://www.w3.org/2000/svg">
<path d="M1472 2H1479.5L1477.5 39L1479.5 43.5H1480.5V124H1485.5V128L1481 132.5V173L1483 175V189.5H1485V238.5L1488.5 242V251H1494.5" stroke="#0038FF" stroke-width="4"/>
<path d="M1477.5 2H1470L1472 39L1470 43.5H1469V124H1464V128L1468.5 132.5V173L1466.5 175V189.5H1464.5V238.5L1461 242V251H1455" stroke="#0038FF" stroke-width="4"/>
<path d="M1435 2H1442.5L1440.5 39L1442.5 43.5H1443.5V124H1448.5V128L1444 132.5V173L1446 175V189.5H1448V238.5L1451.5 242V251H1457.5" stroke="#0038FF" stroke-width="4"/>
<path d="M1440.5 2H1433L1435 39L1433 43.5H1432V124H1427V128L1431.5 132.5V173L1429.5 175V189.5H1427.5V238.5L1424 242V251H1418" stroke="#0038FF" stroke-width="4"/>
<path d="M1418 252L1317 453L1395 582L1444 459H1461.5" stroke="#0038FF" stroke-width="4"/>
<path d="M1495.5 252L1596.5 453L1518.5 582L1469.5 459H1452" stroke="#0038FF" stroke-width="4"/>
<path d="M779 2197V2336H1095V2197" stroke="#0038FF" stroke-width="4"/>
<path d="M650.101 2014.25L669.262 2006.31L688.423 2014.25L696.36 2033.41L688.423 2052.57L669.262 2060.51L650.101 2052.57L642.165 2033.41L650.101 2014.25Z" stroke="#0038FF" stroke-width="4"/>
<path d="M1185.18 2014.25L1204.34 2006.31L1223.51 2014.25L1231.44 2033.41L1223.51 2052.57L1204.34 2060.51L1185.18 2052.57L1177.25 2033.41L1185.18 2014.25Z" stroke="#0038FF" stroke-width="4"/>
<path d="M650.101 1826.45L669.262 1818.52L688.423 1826.45L696.36 1845.62L688.423 1864.78L669.262 1872.71L650.101 1864.78L642.165 1845.62L650.101 1826.45Z" stroke="#0038FF" stroke-width="4"/>
<path d="M918.101 1398.1L937.262 1390.16L956.423 1398.1L964.36 1417.26L956.423 1436.42L937.262 1444.36L918.101 1436.42L910.165 1417.26L918.101 1398.1Z" stroke="#0038FF" stroke-width="4"/>
<path d="M562.101 1398.1L581.262 1390.16L600.423 1398.1L608.36 1417.26L600.423 1436.42L581.262 1444.36L562.101 1436.42L554.165 1417.26L562.101 1398.1Z" stroke="#0038FF" stroke-width="4"/>
<path d="M573.28 1469.4L578.76 1467.13L579.525 1468.98L581.5 1468.16L583.475 1468.98L584.24 1467.13L589.72 1469.4L588.955 1471.25L590.929 1472.07L591.747 1474.05L593.595 1473.28L595.865 1478.76L594.017 1479.53L594.835 1481.5L594.017 1483.47L595.865 1484.24L593.595 1489.72L591.747 1488.95L590.929 1490.93L588.955 1491.75L589.72 1493.6L584.24 1495.87L583.475 1494.02L581.5 1494.84L579.525 1494.02L578.76 1495.87L573.28 1493.6L574.045 1491.75L572.071 1490.93L571.253 1488.95L569.405 1489.72L567.135 1484.24L568.983 1483.47L568.165 1481.5L568.983 1479.53L567.135 1478.76L569.405 1473.28L571.253 1474.05L572.071 1472.07L574.045 1471.25L573.28 1469.4Z" stroke="#0038FF" stroke-width="4" stroke-dasharray="6 6"/>
<path d="M561 1397L575 1402L581 1417" stroke="#0038FF" stroke-width="4"/>
<path d="M918.101 1105.1L937.262 1097.16L956.423 1105.1L964.36 1124.26L956.423 1143.42L937.262 1151.36L918.101 1143.42L910.165 1124.26L918.101 1105.1Z" stroke="#0038FF" stroke-width="4"/>
<path d="M1185.18 1826.45L1204.34 1818.52L1223.51 1826.45L1231.44 1845.62L1223.51 1864.78L1204.34 1872.71L1185.18 1864.78L1177.25 1845.62L1185.18 1826.45Z" stroke="#0038FF" stroke-width="4"/>
<path d="M778.469 2197H427V1681H1447V1810M1094.57 2197H1447V2068" stroke="#0038FF" stroke-width="4"/>
<path d="M1447 1811H1513M1447 2068H1697V1811H1631" stroke="#0038FF" stroke-width="4"/>
<path d="M1513 1358H1631V1811M1513 1811V1584.5V1475.5" stroke="#0038FF" stroke-width="4"/>
<path d="M1095 1476L1513 1476M1095 1358L1513 1358" stroke="#0038FF" stroke-width="4"/>
<path d="M996 774L996 633M878 774L878 633" stroke="#0038FF" stroke-width="4"/>
<path d="M642 927H524V1321M642 1324V1125.5V1045.5" stroke="#0038FF" stroke-width="4"/>
<path d="M779 1045L642 1045M779 927L642 927" stroke="#0038FF" stroke-width="4"/>
<path d="M1395 1045L1513 1045L1513 651M1395 648L1395 846.5L1395 926.5" stroke="#0038FF" stroke-width="4"/>
<path d="M1095 927L1395 927M1095 1045L1395 1045" stroke="#0038FF" stroke-width="4"/>
<path d="M1095 1358.5V1045M1095 1476.5V1626H779V1045.5M779 926.5V872L879 774.5M1095 927V872L997.5 773.5" stroke="#0038FF" stroke-width="4"/>
<path d="M1095 151.5L1095 534L995 631.5M779 144L779 534L876.5 632.5" stroke="#0038FF" stroke-width="4"/>
<path d="M524 1320.5L427 1417L581 1571L735 1417L642 1323.5" stroke="#0038FF" stroke-width="4"/>
<path d="M1514.43 653L1613 555.152L1456.5 399L1300 555.152L1394.51 649.958" stroke="#0038FF" stroke-width="4"/>
<path d="M581 1388.5L588 1402L581.5 1417" stroke="#0038FF" stroke-width="4"/>
<path d="M601.5 1397L597 1411L581.5 1417" stroke="#0038FF" stroke-width="4"/>
<path d="M610 1417.5L597 1424L581.5 1417" stroke="#0038FF" stroke-width="4"/>
<path d="M601.5 1437.5L588 1433L581.5 1417" stroke="#0038FF" stroke-width="4"/>
<path d="M581.5 1446L575 1433L581.5 1417" stroke="#0038FF" stroke-width="4"/>
<path d="M561 1437.5L566 1424L581.5 1417.5" stroke="#0038FF" stroke-width="4"/>
<path d="M552.5 1417.5L566 1411L581.5 1417.5" stroke="#0038FF" stroke-width="4"/>
<path d="M1477.31 529.363L1481.77 541.908L1479.89 542.578L1481.81 547.985L1479.15 552.643L1480.88 553.636L1474.65 564.545L1472.91 563.553L1470.37 568L1464.27 568L1464.27 570L1449.73 570L1449.73 568L1443.63 568L1441.09 563.553L1439.35 564.545L1433.12 553.636L1434.85 552.643L1432.19 547.985L1434.11 542.578L1432.23 541.908L1436.69 529.363L1438.57 530.033L1443.03 517.487L1441.14 516.818L1445.6 504.273L1447.48 504.942L1449.24 500L1452.41 500L1452.41 498L1461.59 498L1461.59 500L1464.76 500L1466.52 504.942L1468.4 504.273L1472.86 516.818L1470.97 517.487L1475.43 530.033L1477.31 529.363Z" stroke="#0038FF" stroke-width="4" stroke-dasharray="16 16"/>
<path d="M908.174 837H898V847.174" stroke="#0038FF" stroke-width="4"/>
<path d="M965.826 837H976V847.174" stroke="#0038FF" stroke-width="4"/>
<path d="M908.174 915.241H898V905.067" stroke="#0038FF" stroke-width="4"/>
<path d="M965.826 915.241H976V905.067" stroke="#0038FF" stroke-width="4"/>
<rect x="936" y="866" width="1" height="39" fill="#0038FF"/>
<rect x="936" y="851" width="1" height="11" fill="#0038FF"/>
<rect x="938.5" y="864.5" width="1" height="11" transform="rotate(-90 938.5 864.5)" fill="#0038FF"/>
<rect x="923.5" y="864.5" width="1" height="11" transform="rotate(-90 923.5 864.5)" fill="#0038FF"/>
<rect x="937.854" y="866.061" width="1" height="11" transform="rotate(-45 937.854 866.061)" fill="#0038FF"/>
<rect x="926.662" y="854.868" width="1" height="11" transform="rotate(-45 926.662 854.868)" fill="#0038FF"/>
<rect x="938.561" y="862.646" width="1" height="11" transform="rotate(-135 938.561 862.646)" fill="#0038FF"/>
<rect x="927.369" y="873.839" width="1" height="11" transform="rotate(-135 927.369 873.839)" fill="#0038FF"/>
<path d="M778.5 144H827V108H737V188L580 345L309 306L199 672L107 828L3 1664L135 1856L193 2296L801 2452L1429 2312L1633 2318L1841 2170L2039 1756L1667 1144L1889 732L1455 354L1138 188L1136 110H1037V152H1095.5" stroke="#0038FF" stroke-width="4"/>
</svg>
