<svg width="2042" height="2455" viewBox="0 0 2042 2455" fill="none" xmlns="http://www.w3.org/2000/svg">
<rect x="936" y="866" width="1" height="39" fill="#0038FF"/>
<rect x="936" y="851" width="1" height="11" fill="#0038FF"/>
<rect x="938.5" y="864.5" width="1" height="11" transform="rotate(-90 938.5 864.5)" fill="#0038FF"/>
<rect x="923.5" y="864.5" width="1" height="11" transform="rotate(-90 923.5 864.5)" fill="#0038FF"/>
<rect x="937.854" y="866.061" width="1" height="11" transform="rotate(-45 937.854 866.061)" fill="#0038FF"/>
<rect x="926.662" y="854.868" width="1" height="11" transform="rotate(-45 926.662 854.868)" fill="#0038FF"/>
<rect x="938.561" y="862.646" width="1" height="11" transform="rotate(-135 938.561 862.646)" fill="#0038FF"/>
<rect x="927.369" y="873.839" width="1" height="11" transform="rotate(-135 927.369 873.839)" fill="#0038FF"/>
<path d="M1494.5 251H1488.5V242L1485 238.5V189.5H1483V175L1481 173V132.5L1485.5 128V124H1480.5V43.5L1477.5 39L1479.5 2H1472H1477.5H1470L1472 39L1470 43.5L1469 124H1464V128L1468.5 132.5V173L1466.5 175V189.5H1464.5V238.5L1461 242V251H1451.5V242L1448 238.5V189.5H1446V175L1444 173V132.5L1448.5 128V124H1443.5V43.5L1440.5 39L1442.5 2H1435H1440.5H1433L1435 39L1433 43.5L1432 124H1427V128L1431.5 132.5V173L1429.5 175V189.5H1427.5V238.5L1424 242V251H1418V252L1317 453L1395 582L1444 459H1469.5L1518.5 582L1596.5 453L1495.5 252L1494.5 251" stroke="#0038FF" stroke-width="4"/>
<path d="M1477.5 2H1470L1472 39L1470 43.5H1469V124H1464V128L1468.5 132.5V173L1466.5 175V189.5H1464.5V238.5L1461 242V251H1455L1477.5 2" stroke="#0038FF" stroke-width="4"/>
<path d="M1457.5 251H1451.5V242L1448 238.5V189.5H1446V175L1444 173V132.5L1448.5 128V124H1443.5V43.5L1440.5 39L1442.5 2H1435H1440.5H1433L1435 39L1433 43.5L1432 124H1427V128L1431.5 132.5V173L1429.5 175V189.5H1427.5V238.5L1424 242V251H1418H1457.5" stroke="#0038FF" stroke-width="4"/>
<path d="M1440.5 2H1433L1435 39L1433 43.5H1432V124H1427V128L1431.5 132.5V173L1429.5 175V189.5H1427.5V238.5L1424 242V251H1418L1440.5 2" stroke="#0038FF" stroke-width="4"/>
<path d="M1418 252L1317 453L1395 582L1444 459H1469.5L1518.5 582L1596.5 453L1495.5 252H1418" stroke="#0038FF" stroke-width="4"/>
<path d="M1462 458L1469.5 459L1518.5 582L1596.5 453L1495.5 252L1462 458" stroke="#0038FF" stroke-width="4"/>
<path d="M650.101013183594 2014.25L669.262023925781 2006.31005859375L688.422973632812 2014.25L696.359985351562 2033.41003417969L688.422973632812 2052.57006835938L669.262023925781 2060.51000976562L650.101013183594 2052.57006835938L642.164978027344 2033.41003417969L650.101013183594 2014.25" stroke="#0038FF" stroke-width="4"/>
<path d="M1185.18005371094 2014.25L1204.33996582031 2006.31005859375L1223.51000976562 2014.25L1231.43994140625 2033.41003417969L1223.51000976562 2052.57006835938L1204.33996582031 2060.51000976562L1185.18005371094 2052.57006835938L1177.25 2033.41003417969L1185.18005371094 2014.25" stroke="#0038FF" stroke-width="4"/>
<path d="M650.101013183594 1826.44995117188L669.262023925781 1818.52001953125L688.422973632812 1826.44995117188L696.359985351562 1845.61999511719L688.422973632812 1864.78002929688L669.262023925781 1872.7099609375L650.101013183594 1864.78002929688L642.164978027344 1845.61999511719L650.101013183594 1826.44995117188" stroke="#0038FF" stroke-width="4"/>
<path d="M918.101013183594 1398.09997558594L937.262023925781 1390.16003417969L956.422973632812 1398.09997558594L964.359985351562 1417.26000976562L956.422973632812 1436.42004394531L937.262023925781 1444.35998535156L918.101013183594 1436.42004394531L910.164978027344 1417.26000976562L918.101013183594 1398.09997558594" stroke="#0038FF" stroke-width="4"/>
<path d="M562.101013183594 1398.09997558594L581.262023925781 1390.16003417969L600.422973632812 1398.09997558594L608.359985351562 1417.26000976562L600.422973632812 1436.42004394531L581.262023925781 1444.35998535156L562.101013183594 1436.42004394531L554.164978027344 1417.26000976562L562.101013183594 1398.09997558594" stroke="#0038FF" stroke-width="4"/>
<path d="M573.280029296875 1469.40002441406L578.760009765625 1467.13000488281L579.525024414062 1468.97998046875L581.5 1468.16003417969L583.474975585938 1468.97998046875L584.239990234375 1467.13000488281L589.719970703125 1469.40002441406L588.955017089844 1471.25L590.929016113281 1472.06994628906L591.747009277344 1474.05004882812L593.594970703125 1473.28002929688L595.864990234375 1478.76000976562L594.017028808594 1479.53002929688L594.835021972656 1481.5L594.017028808594 1483.46997070312L595.864990234375 1484.23999023438L593.594970703125 1489.71997070312L591.747009277344 1488.94995117188L590.929016113281 1490.93005371094L588.955017089844 1491.75L589.719970703125 1493.59997558594L584.239990234375 1495.86999511719L583.474975585938 1494.02001953125L581.5 1494.83996582031L579.525024414062 1494.02001953125L578.760009765625 1495.86999511719L573.280029296875 1493.59997558594L574.044982910156 1491.75L572.070983886719 1490.93005371094L571.252990722656 1488.94995117188L569.405029296875 1489.71997070312L567.135009765625 1484.23999023438L568.982971191406 1483.46997070312L568.164978027344 1481.5L568.982971191406 1479.53002929688L567.135009765625 1478.76000976562L569.405029296875 1473.28002929688L571.252990722656 1474.05004882812L572.070983886719 1472.06994628906L574.044982910156 1471.25L573.280029296875 1469.40002441406" stroke="#0038FF" stroke-width="4"/>
<path d="M561 1397L575 1402L581 1417L561 1397" stroke="#0038FF" stroke-width="4"/>
<path d="M918.101013183594 1105.09997558594L937.262023925781 1097.16003417969L956.422973632812 1105.09997558594L964.359985351562 1124.26000976562L956.422973632812 1143.42004394531L937.262023925781 1151.35998535156L918.101013183594 1143.42004394531L910.164978027344 1124.26000976562L918.101013183594 1105.09997558594" stroke="#0038FF" stroke-width="4"/>
<path d="M1185.18005371094 1826.44995117188L1204.33996582031 1818.52001953125L1223.51000976562 1826.44995117188L1231.43994140625 1845.61999511719L1223.51000976562 1864.78002929688L1204.33996582031 1872.7099609375L1185.18005371094 1864.78002929688L1177.25 1845.61999511719L1185.18005371094 1826.44995117188" stroke="#0038FF" stroke-width="4"/>
<path d="M779 144V534L876.5 632.5L878 774L779 872V926.5L642 927H524V1321L427 1417L581 1571L735 1417L642 1323.5V1045.5L779 1045V1626H1095V1476.5L1513 1476V1811H1447V1681H427V2197H778.468994140625L779 2336H1095V2197H1447V2068H1697V1811H1631V1358H1513H1095V1045H1395H1513V651L1613 555.151977539062L1456.5 399L1300 555.151977539062L1394.51000976562 649.9580078125L1395 926.5L1095 927V872L997.5 773.5L996 633L1095 534V151.5L1037 152V110H1136L1138 188L1455 354L1889 732L1667 1144L2039 1756L1841 2170L1633 2318L1429 2312L801 2452L193 2296L135 1856L3 1664L107 828L199 672L309 306L580 345L737 188V108H827V144H779" stroke="#0038FF" stroke-width="4"/>
<path d="M581 1388.5L588 1402L581.5 1417L581 1388.5" stroke="#0038FF" stroke-width="4"/>
<path d="M601.5 1397L597 1411L581.5 1417L601.5 1397" stroke="#0038FF" stroke-width="4"/>
<path d="M610 1417.5L597 1424L581.5 1417L610 1417.5" stroke="#0038FF" stroke-width="4"/>
<path d="M601.5 1437.5L588 1433L581.5 1417L601.5 1437.5" stroke="#0038FF" stroke-width="4"/>
<path d="M581.5 1446L575 1433L581.5 1417V1446" stroke="#0038FF" stroke-width="4"/>
<path d="M561 1437.5L566 1424L581.5 1417.5L561 1437.5" stroke="#0038FF" stroke-width="4"/>
<path d="M552.5 1417.5L566 1411L581.5 1417.5H552.5" stroke="#0038FF" stroke-width="4"/>
<path d="M1477.31005859375 529.362976074219L1481.77001953125 541.908020019531L1479.89001464844 542.578002929688L1481.81005859375 547.984985351562L1479.15002441406 552.643005371094L1480.88000488281 553.635986328125L1474.65002441406 564.544982910156L1472.91003417969 563.552978515625L1470.36999511719 568H1464.27001953125V570H1449.72998046875V568H1443.63000488281L1441.08996582031 563.552978515625L1439.34997558594 564.544982910156L1433.11999511719 553.635986328125L1434.84997558594 552.643005371094L1432.18994140625 547.984985351562L1434.10998535156 542.578002929688L1432.22998046875 541.908020019531L1436.68994140625 529.362976074219L1438.56994628906 530.033020019531L1443.03002929688 517.486999511719L1441.14001464844 516.817993164062L1445.59997558594 504.273010253906L1447.47998046875 504.941986083984L1449.23999023438 500H1452.41003417969V498H1461.58996582031V500H1464.76000976562L1466.52001953125 504.941986083984L1468.40002441406 504.273010253906L1472.85998535156 516.817993164062L1470.96997070312 517.486999511719L1475.43005371094 530.033020019531L1477.31005859375 529.362976074219" stroke="#0038FF" stroke-width="4"/>
<path d="M908.174011230469 837H898V847.174011230469L908.174011230469 837" stroke="#0038FF" stroke-width="4"/>
<path d="M965.825988769531 837H976V847.174011230469L965.825988769531 837" stroke="#0038FF" stroke-width="4"/>
<path d="M908.174011230469 915.241027832031H898V905.067016601562L908.174011230469 915.241027832031" stroke="#0038FF" stroke-width="4"/>
<path d="M965.825988769531 915.241027832031H976V905.067016601562L965.825988769531 915.241027832031" stroke="#0038FF" stroke-width="4"/>
</svg>