<svg width="2332" height="3582" viewBox="0 0 2332 3582" fill="none" xmlns="http://www.w3.org/2000/svg">
<path d="M691.945007324219 58.7220993041992V6L558.43798828125 75.7292022705078L500.613006591797 290.019012451172L282.920013427734 796.830993652344L470 1242.42004394531L133.255004882813 1725.42004394531L4 2079.169921875L316.933990478516 2494.13989257813L201.285003662109 2932.92993164063L837.357971191406 3266.27001953125L1075.4599609375 3586L1970.0400390625 3358.10009765625L1844.18994140625 2739.05004882813L2334 2534.9599609375L2153.71997070313 1888.68994140625L2204.73999023438 1007.71997070313L1861.19995117188 752.612976074219L1895.2099609375 419.273010253906L1487.0400390625 259.406005859375L1419.01000976563 21.3064002990723L1315.05004882813 7.06295013427734V59.7849998474121L1127.11999511719 247.714004516602V381.220001220703L1462.58996582031 716.684997558594L1301.43994140625 877.828002929688V1138.0400390625L1362.67004394531 1199.26000976563L1405.18994140625 1156.73999023438V893.133972167969L1589.71997070313 708.606994628906L1762.33996582031 881.22900390625V1219.67004394531H1621.18005371094L1507.22998046875 1333.61999511719L1712.17004394531 1538.55004882813H1809.9599609375V1784.31005859375L2009.80004882813 1984.14001464844V2257.11010742188L1752.14001464844 2538.14990234375L1301.66003417969 2536.65991210938V2864.89990234375L1388.39001464844 2951.6298828125V3167.6201171875L1214.06994628906 3341.94995117188L1000.63000488281 3128.51000976563V2912.52001953125L1131.57995605469 2781.56005859375V2551.5400390625H851.388977050781L584.799011230469 2284.94995117188V2008.58996582031L835.656982421875 1757.72998046875V1541.73999023438H1301.66003417969V1468.60998535156L1077.16003417969 1244.11999511719H728.510986328125V834.247009277344L586.5 692.237976074219L830.554992675781 448.184997558594L1104.36999511719 722L987.02197265625 839.348999023438V1131.86999511719H1074.60998535156V870.81201171875L1222.56994628906 722.849975585938L879.8759765625 380.157012939453V246.651000976563L691.945007324219 58.7220993041992" stroke="#0038FF" stroke-width="4"/>
</svg>