<svg width="2332" height="3582" viewBox="0 0 2332 3582" fill="none" xmlns="http://www.w3.org/2000/svg">
<path d="M688.945 53.7221V1L555.438 70.7292L497.613 285.019L279.92 791.831L467 1237.42L130.255 1720.42L1 2074.17L313.934 2489.14L198.285 2927.93L834.358 3261.27L1072.46 3581L1967.04 3353.1L1841.19 2734.05L2331 2529.96L2150.72 1883.69L2201.74 1002.72L1858.2 747.613L1892.21 414.273L1484.04 254.406L1416.01 16.3064L1312.05 2.06295V54.785L1124.12 242.714V376.22L1459.59 711.685L1298.44 872.828V1133.04L1359.67 1194.26L1402.19 1151.74V888.134L1586.72 703.607L1759.34 876.229V1214.67H1618.18L1504.23 1328.62L1709.17 1533.55H1806.96V1779.31L2006.8 1979.14V2252.11L1749.14 2533.15L1298.66 2531.66V2859.9L1385.39 2946.63V3162.62L1211.07 3336.95L997.628 3123.51V2907.52L1128.58 2776.56V2546.54H848.389L581.799 2279.95V2003.59L832.657 1752.73V1536.74H1298.66V1463.61L1074.16 1239.12H725.511V829.247L583.5 687.238L827.555 443.185L1101.37 717L984.022 834.349V1126.87H1071.61V865.812L1219.57 717.85L876.876 375.157V241.651L688.945 53.7221Z" stroke="white"/>
</svg>
