<?xml version="1.0" encoding="UTF-8" standalone="no"?>
<!DOCTYPE svg PUBLIC "-//W3C//DTD SVG 1.1//EN" "http://www.w3.org/Graphics/SVG/1.1/DTD/svg11.dtd">
<svg width="100%" height="100%" viewBox="0 0 128 128" version="1.1" xmlns="http://www.w3.org/2000/svg" xmlns:xlink="http://www.w3.org/1999/xlink" xml:space="preserve" xmlns:serif="http://www.serif.com/" style="fill-rule:evenodd;clip-rule:evenodd;stroke-linejoin:round;stroke-miterlimit:2;">
    <g transform="matrix(-0.11729,0.105744,-0.119295,-0.132319,243.368,135.773)">
        <path d="M105,673L511.491,997.852" style="fill:none;fill-rule:nonzero;stroke:white;stroke-width:23.76px;"/>
    </g>
    <g transform="matrix(-0.105744,-0.11729,0.132319,-0.119295,-13.7557,237.001)">
        <path d="M105,673L511.491,997.852" style="fill:none;fill-rule:nonzero;stroke:white;stroke-width:23.76px;"/>
    </g>
    <g transform="matrix(-0.11729,0.105744,-0.119295,-0.132319,156.648,135.773)">
        <path d="M105,673L511.491,997.852" style="fill:none;fill-rule:nonzero;stroke:white;stroke-width:23.76px;"/>
    </g>
    <g transform="matrix(-0.105744,-0.11729,0.132319,-0.119295,-13.7557,150.281)">
        <path d="M105,673L511.491,997.852" style="fill:none;fill-rule:nonzero;stroke:white;stroke-width:23.76px;"/>
    </g>
    <g transform="matrix(-0.15792,1.93396e-17,-2.18178e-17,-0.178156,144.73,235.733)">
        <path d="M105,673L511.491,997.852L919,673" style="fill:white;fill-opacity:0;fill-rule:nonzero;stroke:white;stroke-width:23.76px;"/>
    </g>
    <g transform="matrix(0.15792,0,0,0.178156,-16.5955,-119.316)">
        <path d="M105,673L511.491,997.852L919,673" style="fill:white;fill-opacity:0;fill-rule:nonzero;stroke:white;stroke-width:23.76px;"/>
    </g>
</svg>
